<mxfile host="app.diagrams.net" agent="Mozilla/5.0 (Windows NT 10.0; Win64; x64) AppleWebKit/537.36 (KHTML, like Gecko) Chrome/128.0.0.0 Safari/537.36" version="24.7.14" pages="2">
  <diagram name="Page-1" id="LNOm22qeZT6ZBgHTYNzI">
    <mxGraphModel dx="2547" dy="824" grid="1" gridSize="10" guides="1" tooltips="1" connect="1" arrows="1" fold="1" page="1" pageScale="1" pageWidth="827" pageHeight="1169" math="0" shadow="0">
      <root>
        <mxCell id="0" />
        <mxCell id="1" parent="0" />
        <UserObject label="" plantUmlData="{&#xa;  &quot;data&quot;: &quot;@startuml\nactor \&quot;Пользователь\&quot; as User\nparticipant \&quot;Кнопка button_light/button2\&quot; as Button\nparticipant \&quot;Правило changeLedColor\&quot; as RuleEngine\nparticipant \&quot;Светодиодная Лента wb-mrgbw-d_78\&quot; as LEDStrip\nparticipant \&quot;Лог\&quot; as Logger\n\nUser -&gt; Button: Нажатие кнопки\nButton -&gt; RuleEngine: Событие onChange (newValue = 1)\nRuleEngine -&gt; RuleEngine: Проверка (newValue == 1)\nalt newValue == 1\n    RuleEngine -&gt; RuleEngine: Вычисление currentColorIndex\n    RuleEngine -&gt; RuleEngine: Получение newColor из ledColors\n    RuleEngine -&gt; LEDStrip: Установка RGB = newColor\n    RuleEngine -&gt; Logger: log.info(\&quot;color changed to: \&quot; + newColor)\nelse\n    RuleEngine -&gt; RuleEngine: Ничего не делать\nend\n@enduml\n&quot;,&#xa;  &quot;format&quot;: &quot;svg&quot;&#xa;}" id="wg70akQz4SP8fJvQTQND-1">
          <mxCell style="shape=image;noLabel=1;verticalAlign=top;aspect=fixed;imageAspect=0;image=data:image/svg+xml,PD94bWwgdmVyc2lvbj0iMS4wIiBlbmNvZGluZz0idXMtYXNjaWkiIHN0YW5kYWxvbmU9Im5vIj8+PHN2ZyB4bWxucz0iaHR0cDovL3d3dy53My5vcmcvMjAwMC9zdmciIHhtbG5zOnhsaW5rPSJodHRwOi8vd3d3LnczLm9yZy8xOTk5L3hsaW5rIiBjb250ZW50U3R5bGVUeXBlPSJ0ZXh0L2NzcyIgaGVpZ2h0PSI0ODZweCIgcHJlc2VydmVBc3BlY3RSYXRpbz0ibm9uZSIgc3R5bGU9IndpZHRoOjg1NnB4O2hlaWdodDo0ODZweDtiYWNrZ3JvdW5kOiNGRkZGRkY7IiB2ZXJzaW9uPSIxLjEiIHZpZXdCb3g9IjAgMCA4NTYgNDg2IiB3aWR0aD0iODU2cHgiIHpvb21BbmRQYW49Im1hZ25pZnkiPjxkZWZzLz48Zz48cmVjdCBmaWxsPSJub25lIiBoZWlnaHQ9IjE5Ni40ODQ0IiBzdHlsZT0ic3Ryb2tlOiMwMDAwMDA7c3Ryb2tlLXdpZHRoOjEuNTsiIHdpZHRoPSI0OTguNSIgeD0iMzUwLjUiIHk9IjE5My43MjY2Ii8+PGxpbmUgc3R5bGU9InN0cm9rZTojMTgxODE4O3N0cm9rZS13aWR0aDowLjU7c3Ryb2tlLWRhc2hhcnJheTo1LjAsNS4wOyIgeDE9IjUxIiB4Mj0iNTEiIHkxPSI3OS45ODQ0IiB5Mj0iNDA3LjIxMDkiLz48bGluZSBzdHlsZT0ic3Ryb2tlOiMxODE4MTg7c3Ryb2tlLXdpZHRoOjAuNTtzdHJva2UtZGFzaGFycmF5OjUuMCw1LjA7IiB4MT0iMjA5IiB4Mj0iMjA5IiB5MT0iNzkuOTg0NCIgeTI9IjQwNy4yMTA5Ii8+PGxpbmUgc3R5bGU9InN0cm9rZTojMTgxODE4O3N0cm9rZS13aWR0aDowLjU7c3Ryb2tlLWRhc2hhcnJheTo1LjAsNS4wOyIgeDE9IjQ0NC41IiB4Mj0iNDQ0LjUiIHkxPSI3OS45ODQ0IiB5Mj0iNDA3LjIxMDkiLz48bGluZSBzdHlsZT0ic3Ryb2tlOiMxODE4MTg7c3Ryb2tlLXdpZHRoOjAuNTtzdHJva2UtZGFzaGFycmF5OjUuMCw1LjA7IiB4MT0iNjcyIiB4Mj0iNjcyIiB5MT0iNzkuOTg0NCIgeTI9IjQwNy4yMTA5Ii8+PGxpbmUgc3R5bGU9InN0cm9rZTojMTgxODE4O3N0cm9rZS13aWR0aDowLjU7c3Ryb2tlLWRhc2hhcnJheTo1LjAsNS4wOyIgeDE9IjgyMSIgeDI9IjgyMSIgeTE9Ijc5Ljk4NDQiIHkyPSI0MDcuMjEwOSIvPjx0ZXh0IGZpbGw9IiMwMDAwMDAiIGZvbnQtZmFtaWx5PSJzYW5zLXNlcmlmIiBmb250LXNpemU9IjE0IiBsZW5ndGhBZGp1c3Q9InNwYWNpbmciIHRleHRMZW5ndGg9Ijg2IiB4PSI1IiB5PSI3OC4yMzQ0Ij4mIzEwNTU7JiMxMDg2OyYjMTA4MzsmIzExMDA7JiMxMDc5OyYjMTA4NjsmIzEwNzQ7JiMxMDcyOyYjMTA5MDsmIzEwNzc7JiMxMDgzOyYjMTEwMDs8L3RleHQ+PGVsbGlwc2UgY3g9IjUxIiBjeT0iMTMuNSIgZmlsbD0iI0UyRTJGMCIgcng9IjgiIHJ5PSI4IiBzdHlsZT0ic3Ryb2tlOiMxODE4MTg7c3Ryb2tlLXdpZHRoOjAuNTsiLz48cGF0aCBkPSJNNTEsMjEuNSBMNTEsNDguNSBNMzgsMjkuNSBMNjQsMjkuNSBNNTEsNDguNSBMMzgsNjMuNSBNNTEsNDguNSBMNjQsNjMuNSAiIGZpbGw9Im5vbmUiIHN0eWxlPSJzdHJva2U6IzE4MTgxODtzdHJva2Utd2lkdGg6MC41OyIvPjx0ZXh0IGZpbGw9IiMwMDAwMDAiIGZvbnQtZmFtaWx5PSJzYW5zLXNlcmlmIiBmb250LXNpemU9IjE0IiBsZW5ndGhBZGp1c3Q9InNwYWNpbmciIHRleHRMZW5ndGg9Ijg2IiB4PSI1IiB5PSI0MTkuNDQ1MyI+JiMxMDU1OyYjMTA4NjsmIzEwODM7JiMxMTAwOyYjMTA3OTsmIzEwODY7JiMxMDc0OyYjMTA3MjsmIzEwOTA7JiMxMDc3OyYjMTA4MzsmIzExMDA7PC90ZXh0PjxlbGxpcHNlIGN4PSI1MSIgY3k9IjQyOS42OTUzIiBmaWxsPSIjRTJFMkYwIiByeD0iOCIgcnk9IjgiIHN0eWxlPSJzdHJva2U6IzE4MTgxODtzdHJva2Utd2lkdGg6MC41OyIvPjxwYXRoIGQ9Ik01MSw0MzcuNjk1MyBMNTEsNDY0LjY5NTMgTTM4LDQ0NS42OTUzIEw2NCw0NDUuNjk1MyBNNTEsNDY0LjY5NTMgTDM4LDQ3OS42OTUzIE01MSw0NjQuNjk1MyBMNjQsNDc5LjY5NTMgIiBmaWxsPSJub25lIiBzdHlsZT0ic3Ryb2tlOiMxODE4MTg7c3Ryb2tlLXdpZHRoOjAuNTsiLz48cmVjdCBmaWxsPSIjRTJFMkYwIiBoZWlnaHQ9IjI4Ljk4NDQiIHJ4PSIyLjUiIHJ5PSIyLjUiIHN0eWxlPSJzdHJva2U6IzE4MTgxODtzdHJva2Utd2lkdGg6MC41OyIgd2lkdGg9IjIwNCIgeD0iMTA3IiB5PSI1MCIvPjx0ZXh0IGZpbGw9IiMwMDAwMDAiIGZvbnQtZmFtaWx5PSJzYW5zLXNlcmlmIiBmb250LXNpemU9IjE0IiBsZW5ndGhBZGp1c3Q9InNwYWNpbmciIHRleHRMZW5ndGg9IjE5MCIgeD0iMTE0IiB5PSI3MC4yMzQ0Ij4mIzEwNTA7JiMxMDg1OyYjMTA4NjsmIzEwODc7JiMxMDgyOyYjMTA3MjsgYnV0dG9uX2xpZ2h0L2J1dHRvbjI8L3RleHQ+PHJlY3QgZmlsbD0iI0UyRTJGMCIgaGVpZ2h0PSIyOC45ODQ0IiByeD0iMi41IiByeT0iMi41IiBzdHlsZT0ic3Ryb2tlOiMxODE4MTg7c3Ryb2tlLXdpZHRoOjAuNTsiIHdpZHRoPSIyMDQiIHg9IjEwNyIgeT0iNDA2LjIxMDkiLz48dGV4dCBmaWxsPSIjMDAwMDAwIiBmb250LWZhbWlseT0ic2Fucy1zZXJpZiIgZm9udC1zaXplPSIxNCIgbGVuZ3RoQWRqdXN0PSJzcGFjaW5nIiB0ZXh0TGVuZ3RoPSIxOTAiIHg9IjExNCIgeT0iNDI2LjQ0NTMiPiYjMTA1MDsmIzEwODU7JiMxMDg2OyYjMTA4NzsmIzEwODI7JiMxMDcyOyBidXR0b25fbGlnaHQvYnV0dG9uMjwvdGV4dD48cmVjdCBmaWxsPSIjRTJFMkYwIiBoZWlnaHQ9IjI4Ljk4NDQiIHJ4PSIyLjUiIHJ5PSIyLjUiIHN0eWxlPSJzdHJva2U6IzE4MTgxODtzdHJva2Utd2lkdGg6MC41OyIgd2lkdGg9IjE2OSIgeD0iMzYwLjUiIHk9IjUwIi8+PHRleHQgZmlsbD0iIzAwMDAwMCIgZm9udC1mYW1pbHk9InNhbnMtc2VyaWYiIGZvbnQtc2l6ZT0iMTQiIGxlbmd0aEFkanVzdD0ic3BhY2luZyIgdGV4dExlbmd0aD0iMTU1IiB4PSIzNjcuNSIgeT0iNzAuMjM0NCI+JiMxMDU1OyYjMTA4ODsmIzEwNzI7JiMxMDc0OyYjMTA4MDsmIzEwODM7JiMxMDg2OyBjaGFuZ2VMZWRDb2xvcjwvdGV4dD48cmVjdCBmaWxsPSIjRTJFMkYwIiBoZWlnaHQ9IjI4Ljk4NDQiIHJ4PSIyLjUiIHJ5PSIyLjUiIHN0eWxlPSJzdHJva2U6IzE4MTgxODtzdHJva2Utd2lkdGg6MC41OyIgd2lkdGg9IjE2OSIgeD0iMzYwLjUiIHk9IjQwNi4yMTA5Ii8+PHRleHQgZmlsbD0iIzAwMDAwMCIgZm9udC1mYW1pbHk9InNhbnMtc2VyaWYiIGZvbnQtc2l6ZT0iMTQiIGxlbmd0aEFkanVzdD0ic3BhY2luZyIgdGV4dExlbmd0aD0iMTU1IiB4PSIzNjcuNSIgeT0iNDI2LjQ0NTMiPiYjMTA1NTsmIzEwODg7JiMxMDcyOyYjMTA3NDsmIzEwODA7JiMxMDgzOyYjMTA4NjsgY2hhbmdlTGVkQ29sb3I8L3RleHQ+PHJlY3QgZmlsbD0iI0UyRTJGMCIgaGVpZ2h0PSIyOC45ODQ0IiByeD0iMi41IiByeT0iMi41IiBzdHlsZT0ic3Ryb2tlOiMxODE4MTg7c3Ryb2tlLXdpZHRoOjAuNTsiIHdpZHRoPSIyNDIiIHg9IjU1MSIgeT0iNTAiLz48dGV4dCBmaWxsPSIjMDAwMDAwIiBmb250LWZhbWlseT0ic2Fucy1zZXJpZiIgZm9udC1zaXplPSIxNCIgbGVuZ3RoQWRqdXN0PSJzcGFjaW5nIiB0ZXh0TGVuZ3RoPSIyMjgiIHg9IjU1OCIgeT0iNzAuMjM0NCI+JiMxMDU3OyYjMTA3NDsmIzEwNzc7JiMxMDkwOyYjMTA4NjsmIzEwNzY7JiMxMDgwOyYjMTA4NjsmIzEwNzY7JiMxMDg1OyYjMTA3MjsmIzExMDM7ICYjMTA1MTsmIzEwNzc7JiMxMDg1OyYjMTA5MDsmIzEwNzI7IHdiLW1yZ2J3LWRfNzg8L3RleHQ+PHJlY3QgZmlsbD0iI0UyRTJGMCIgaGVpZ2h0PSIyOC45ODQ0IiByeD0iMi41IiByeT0iMi41IiBzdHlsZT0ic3Ryb2tlOiMxODE4MTg7c3Ryb2tlLXdpZHRoOjAuNTsiIHdpZHRoPSIyNDIiIHg9IjU1MSIgeT0iNDA2LjIxMDkiLz48dGV4dCBmaWxsPSIjMDAwMDAwIiBmb250LWZhbWlseT0ic2Fucy1zZXJpZiIgZm9udC1zaXplPSIxNCIgbGVuZ3RoQWRqdXN0PSJzcGFjaW5nIiB0ZXh0TGVuZ3RoPSIyMjgiIHg9IjU1OCIgeT0iNDI2LjQ0NTMiPiYjMTA1NzsmIzEwNzQ7JiMxMDc3OyYjMTA5MDsmIzEwODY7JiMxMDc2OyYjMTA4MDsmIzEwODY7JiMxMDc2OyYjMTA4NTsmIzEwNzI7JiMxMTAzOyAmIzEwNTE7JiMxMDc3OyYjMTA4NTsmIzEwOTA7JiMxMDcyOyB3Yi1tcmdidy1kXzc4PC90ZXh0PjxyZWN0IGZpbGw9IiNFMkUyRjAiIGhlaWdodD0iMjguOTg0NCIgcng9IjIuNSIgcnk9IjIuNSIgc3R5bGU9InN0cm9rZTojMTgxODE4O3N0cm9rZS13aWR0aDowLjU7IiB3aWR0aD0iMzYiIHg9IjgwMyIgeT0iNTAiLz48dGV4dCBmaWxsPSIjMDAwMDAwIiBmb250LWZhbWlseT0ic2Fucy1zZXJpZiIgZm9udC1zaXplPSIxNCIgbGVuZ3RoQWRqdXN0PSJzcGFjaW5nIiB0ZXh0TGVuZ3RoPSIyMiIgeD0iODEwIiB5PSI3MC4yMzQ0Ij4mIzEwNTE7JiMxMDg2OyYjMTA3NTs8L3RleHQ+PHJlY3QgZmlsbD0iI0UyRTJGMCIgaGVpZ2h0PSIyOC45ODQ0IiByeD0iMi41IiByeT0iMi41IiBzdHlsZT0ic3Ryb2tlOiMxODE4MTg7c3Ryb2tlLXdpZHRoOjAuNTsiIHdpZHRoPSIzNiIgeD0iODAzIiB5PSI0MDYuMjEwOSIvPjx0ZXh0IGZpbGw9IiMwMDAwMDAiIGZvbnQtZmFtaWx5PSJzYW5zLXNlcmlmIiBmb250LXNpemU9IjE0IiBsZW5ndGhBZGp1c3Q9InNwYWNpbmciIHRleHRMZW5ndGg9IjIyIiB4PSI4MTAiIHk9IjQyNi40NDUzIj4mIzEwNTE7JiMxMDg2OyYjMTA3NTs8L3RleHQ+PHBvbHlnb24gZmlsbD0iIzE4MTgxOCIgcG9pbnRzPSIxOTcsMTA1Ljg5ODQsMjA3LDEwOS44OTg0LDE5NywxMTMuODk4NCwyMDEsMTA5Ljg5ODQiIHN0eWxlPSJzdHJva2U6IzE4MTgxODtzdHJva2Utd2lkdGg6MS4wOyIvPjxsaW5lIHN0eWxlPSJzdHJva2U6IzE4MTgxODtzdHJva2Utd2lkdGg6MS4wOyIgeDE9IjUxIiB4Mj0iMjAzIiB5MT0iMTA5Ljg5ODQiIHkyPSIxMDkuODk4NCIvPjx0ZXh0IGZpbGw9IiMwMDAwMDAiIGZvbnQtZmFtaWx5PSJzYW5zLXNlcmlmIiBmb250LXNpemU9IjEzIiBsZW5ndGhBZGp1c3Q9InNwYWNpbmciIHRleHRMZW5ndGg9Ijk3IiB4PSI1OCIgeT0iMTA2LjI3MzQiPiYjMTA1MzsmIzEwNzI7JiMxMDc4OyYjMTA3MjsmIzEwOTA7JiMxMDgwOyYjMTA3NzsgJiMxMDgyOyYjMTA4NTsmIzEwODY7JiMxMDg3OyYjMTA4MjsmIzEwODA7PC90ZXh0Pjxwb2x5Z29uIGZpbGw9IiMxODE4MTgiIHBvaW50cz0iNDMzLDEzMy44MTI1LDQ0MywxMzcuODEyNSw0MzMsMTQxLjgxMjUsNDM3LDEzNy44MTI1IiBzdHlsZT0ic3Ryb2tlOiMxODE4MTg7c3Ryb2tlLXdpZHRoOjEuMDsiLz48bGluZSBzdHlsZT0ic3Ryb2tlOiMxODE4MTg7c3Ryb2tlLXdpZHRoOjEuMDsiIHgxPSIyMDkiIHgyPSI0MzkiIHkxPSIxMzcuODEyNSIgeTI9IjEzNy44MTI1Ii8+PHRleHQgZmlsbD0iIzAwMDAwMCIgZm9udC1mYW1pbHk9InNhbnMtc2VyaWYiIGZvbnQtc2l6ZT0iMTMiIGxlbmd0aEFkanVzdD0ic3BhY2luZyIgdGV4dExlbmd0aD0iMjEyIiB4PSIyMTYiIHk9IjEzNC4xODc1Ij4mIzEwNTc7JiMxMDg2OyYjMTA3MzsmIzEwOTk7JiMxMDkwOyYjMTA4MDsmIzEwNzc7IG9uQ2hhbmdlIChuZXdWYWx1ZSA9IDEpPC90ZXh0PjxsaW5lIHN0eWxlPSJzdHJva2U6IzE4MTgxODtzdHJva2Utd2lkdGg6MS4wOyIgeDE9IjQ0NSIgeDI9IjQ4NyIgeTE9IjE2NS43MjY2IiB5Mj0iMTY1LjcyNjYiLz48bGluZSBzdHlsZT0ic3Ryb2tlOiMxODE4MTg7c3Ryb2tlLXdpZHRoOjEuMDsiIHgxPSI0ODciIHgyPSI0ODciIHkxPSIxNjUuNzI2NiIgeTI9IjE3OC43MjY2Ii8+PGxpbmUgc3R5bGU9InN0cm9rZTojMTgxODE4O3N0cm9rZS13aWR0aDoxLjA7IiB4MT0iNDQ2IiB4Mj0iNDg3IiB5MT0iMTc4LjcyNjYiIHkyPSIxNzguNzI2NiIvPjxwb2x5Z29uIGZpbGw9IiMxODE4MTgiIHBvaW50cz0iNDU2LDE3NC43MjY2LDQ0NiwxNzguNzI2Niw0NTYsMTgyLjcyNjYsNDUyLDE3OC43MjY2IiBzdHlsZT0ic3Ryb2tlOiMxODE4MTg7c3Ryb2tlLXdpZHRoOjEuMDsiLz48dGV4dCBmaWxsPSIjMDAwMDAwIiBmb250LWZhbWlseT0ic2Fucy1zZXJpZiIgZm9udC1zaXplPSIxMyIgbGVuZ3RoQWRqdXN0PSJzcGFjaW5nIiB0ZXh0TGVuZ3RoPSIxNjQiIHg9IjQ1MiIgeT0iMTYyLjEwMTYiPiYjMTA1NTsmIzEwODg7JiMxMDg2OyYjMTA3NDsmIzEwNzc7JiMxMDg4OyYjMTA4MjsmIzEwNzI7IChuZXdWYWx1ZSA9PSAxKTwvdGV4dD48cGF0aCBkPSJNMzUwLjUsMTkzLjcyNjYgTDQxNC41LDE5My43MjY2IEw0MTQuNSwxOTkuNjQwNiBMNDA0LjUsMjA5LjY0MDYgTDM1MC41LDIwOS42NDA2IEwzNTAuNSwxOTMuNzI2NiAiIGZpbGw9IiNFRUVFRUUiIHN0eWxlPSJzdHJva2U6IzAwMDAwMDtzdHJva2Utd2lkdGg6MS41OyIvPjxyZWN0IGZpbGw9Im5vbmUiIGhlaWdodD0iMTk2LjQ4NDQiIHN0eWxlPSJzdHJva2U6IzAwMDAwMDtzdHJva2Utd2lkdGg6MS41OyIgd2lkdGg9IjQ5OC41IiB4PSIzNTAuNSIgeT0iMTkzLjcyNjYiLz48dGV4dCBmaWxsPSIjMDAwMDAwIiBmb250LWZhbWlseT0ic2Fucy1zZXJpZiIgZm9udC1zaXplPSIxMyIgZm9udC13ZWlnaHQ9ImJvbGQiIGxlbmd0aEFkanVzdD0ic3BhY2luZyIgdGV4dExlbmd0aD0iMTkiIHg9IjM2NS41IiB5PSIyMDcuMDE1NiI+YWx0PC90ZXh0Pjx0ZXh0IGZpbGw9IiMwMDAwMDAiIGZvbnQtZmFtaWx5PSJzYW5zLXNlcmlmIiBmb250LXNpemU9IjExIiBmb250LXdlaWdodD0iYm9sZCIgbGVuZ3RoQWRqdXN0PSJzcGFjaW5nIiB0ZXh0TGVuZ3RoPSI5MCIgeD0iNDI5LjUiIHk9IjIwNi4xMjUiPltuZXdWYWx1ZSA9PSAxXTwvdGV4dD48bGluZSBzdHlsZT0ic3Ryb2tlOiMxODE4MTg7c3Ryb2tlLXdpZHRoOjEuMDsiIHgxPSI0NDUiIHgyPSI0ODciIHkxPSIyMjkuNTU0NyIgeTI9IjIyOS41NTQ3Ii8+PGxpbmUgc3R5bGU9InN0cm9rZTojMTgxODE4O3N0cm9rZS13aWR0aDoxLjA7IiB4MT0iNDg3IiB4Mj0iNDg3IiB5MT0iMjI5LjU1NDciIHkyPSIyNDIuNTU0NyIvPjxsaW5lIHN0eWxlPSJzdHJva2U6IzE4MTgxODtzdHJva2Utd2lkdGg6MS4wOyIgeDE9IjQ0NiIgeDI9IjQ4NyIgeTE9IjI0Mi41NTQ3IiB5Mj0iMjQyLjU1NDciLz48cG9seWdvbiBmaWxsPSIjMTgxODE4IiBwb2ludHM9IjQ1NiwyMzguNTU0Nyw0NDYsMjQyLjU1NDcsNDU2LDI0Ni41NTQ3LDQ1MiwyNDIuNTU0NyIgc3R5bGU9InN0cm9rZTojMTgxODE4O3N0cm9rZS13aWR0aDoxLjA7Ii8+PHRleHQgZmlsbD0iIzAwMDAwMCIgZm9udC1mYW1pbHk9InNhbnMtc2VyaWYiIGZvbnQtc2l6ZT0iMTMiIGxlbmd0aEFkanVzdD0ic3BhY2luZyIgdGV4dExlbmd0aD0iMTkzIiB4PSI0NTIiIHk9IjIyNS45Mjk3Ij4mIzEwNDI7JiMxMDk5OyYjMTA5NTsmIzEwODA7JiMxMDg5OyYjMTA4MzsmIzEwNzc7JiMxMDg1OyYjMTA4MDsmIzEwNzc7IGN1cnJlbnRDb2xvckluZGV4PC90ZXh0PjxsaW5lIHN0eWxlPSJzdHJva2U6IzE4MTgxODtzdHJva2Utd2lkdGg6MS4wOyIgeDE9IjQ0NSIgeDI9IjQ4NyIgeTE9IjI3MC40Njg4IiB5Mj0iMjcwLjQ2ODgiLz48bGluZSBzdHlsZT0ic3Ryb2tlOiMxODE4MTg7c3Ryb2tlLXdpZHRoOjEuMDsiIHgxPSI0ODciIHgyPSI0ODciIHkxPSIyNzAuNDY4OCIgeTI9IjI4My40Njg4Ii8+PGxpbmUgc3R5bGU9InN0cm9rZTojMTgxODE4O3N0cm9rZS13aWR0aDoxLjA7IiB4MT0iNDQ2IiB4Mj0iNDg3IiB5MT0iMjgzLjQ2ODgiIHkyPSIyODMuNDY4OCIvPjxwb2x5Z29uIGZpbGw9IiMxODE4MTgiIHBvaW50cz0iNDU2LDI3OS40Njg4LDQ0NiwyODMuNDY4OCw0NTYsMjg3LjQ2ODgsNDUyLDI4My40Njg4IiBzdHlsZT0ic3Ryb2tlOiMxODE4MTg7c3Ryb2tlLXdpZHRoOjEuMDsiLz48dGV4dCBmaWxsPSIjMDAwMDAwIiBmb250LWZhbWlseT0ic2Fucy1zZXJpZiIgZm9udC1zaXplPSIxMyIgbGVuZ3RoQWRqdXN0PSJzcGFjaW5nIiB0ZXh0TGVuZ3RoPSIyMTMiIHg9IjQ1MiIgeT0iMjY2Ljg0MzgiPiYjMTA1NTsmIzEwODY7JiMxMDgzOyYjMTA5MTsmIzEwOTU7JiMxMDc3OyYjMTA4NTsmIzEwODA7JiMxMDc3OyBuZXdDb2xvciAmIzEwODA7JiMxMDc5OyBsZWRDb2xvcnM8L3RleHQ+PHBvbHlnb24gZmlsbD0iIzE4MTgxOCIgcG9pbnRzPSI2NjAsMzA3LjM4MjgsNjcwLDMxMS4zODI4LDY2MCwzMTUuMzgyOCw2NjQsMzExLjM4MjgiIHN0eWxlPSJzdHJva2U6IzE4MTgxODtzdHJva2Utd2lkdGg6MS4wOyIvPjxsaW5lIHN0eWxlPSJzdHJva2U6IzE4MTgxODtzdHJva2Utd2lkdGg6MS4wOyIgeDE9IjQ0NSIgeDI9IjY2NiIgeTE9IjMxMS4zODI4IiB5Mj0iMzExLjM4MjgiLz48dGV4dCBmaWxsPSIjMDAwMDAwIiBmb250LWZhbWlseT0ic2Fucy1zZXJpZiIgZm9udC1zaXplPSIxMyIgbGVuZ3RoQWRqdXN0PSJzcGFjaW5nIiB0ZXh0TGVuZ3RoPSIxNjUiIHg9IjQ1MiIgeT0iMzA3Ljc1NzgiPiYjMTA1OTsmIzEwODk7JiMxMDkwOyYjMTA3MjsmIzEwODU7JiMxMDg2OyYjMTA3NDsmIzEwODI7JiMxMDcyOyBSR0IgPSBuZXdDb2xvcjwvdGV4dD48cG9seWdvbiBmaWxsPSIjMTgxODE4IiBwb2ludHM9IjgwOSwzMzUuMjk2OSw4MTksMzM5LjI5NjksODA5LDM0My4yOTY5LDgxMywzMzkuMjk2OSIgc3R5bGU9InN0cm9rZTojMTgxODE4O3N0cm9rZS13aWR0aDoxLjA7Ii8+PGxpbmUgc3R5bGU9InN0cm9rZTojMTgxODE4O3N0cm9rZS13aWR0aDoxLjA7IiB4MT0iNDQ1IiB4Mj0iODE1IiB5MT0iMzM5LjI5NjkiIHkyPSIzMzkuMjk2OSIvPjx0ZXh0IGZpbGw9IiMwMDAwMDAiIGZvbnQtZmFtaWx5PSJzYW5zLXNlcmlmIiBmb250LXNpemU9IjEzIiBsZW5ndGhBZGp1c3Q9InNwYWNpbmciIHRleHRMZW5ndGg9IjI3NSIgeD0iNDUyIiB5PSIzMzUuNjcxOSI+bG9nLmluZm8oImNvbG9yIGNoYW5nZWQgdG86ICIgKyBuZXdDb2xvcik8L3RleHQ+PGxpbmUgc3R5bGU9InN0cm9rZTojMDAwMDAwO3N0cm9rZS13aWR0aDoxLjA7c3Ryb2tlLWRhc2hhcnJheToyLjAsMi4wOyIgeDE9IjM1MC41IiB4Mj0iODQ5IiB5MT0iMzQ4LjI5NjkiIHkyPSIzNDguMjk2OSIvPjxsaW5lIHN0eWxlPSJzdHJva2U6IzE4MTgxODtzdHJva2Utd2lkdGg6MS4wOyIgeDE9IjQ0NSIgeDI9IjQ4NyIgeTE9IjM2OS4yMTA5IiB5Mj0iMzY5LjIxMDkiLz48bGluZSBzdHlsZT0ic3Ryb2tlOiMxODE4MTg7c3Ryb2tlLXdpZHRoOjEuMDsiIHgxPSI0ODciIHgyPSI0ODciIHkxPSIzNjkuMjEwOSIgeTI9IjM4Mi4yMTA5Ii8+PGxpbmUgc3R5bGU9InN0cm9rZTojMTgxODE4O3N0cm9rZS13aWR0aDoxLjA7IiB4MT0iNDQ2IiB4Mj0iNDg3IiB5MT0iMzgyLjIxMDkiIHkyPSIzODIuMjEwOSIvPjxwb2x5Z29uIGZpbGw9IiMxODE4MTgiIHBvaW50cz0iNDU2LDM3OC4yMTA5LDQ0NiwzODIuMjEwOSw0NTYsMzg2LjIxMDksNDUyLDM4Mi4yMTA5IiBzdHlsZT0ic3Ryb2tlOiMxODE4MTg7c3Ryb2tlLXdpZHRoOjEuMDsiLz48dGV4dCBmaWxsPSIjMDAwMDAwIiBmb250LWZhbWlseT0ic2Fucy1zZXJpZiIgZm9udC1zaXplPSIxMyIgbGVuZ3RoQWRqdXN0PSJzcGFjaW5nIiB0ZXh0TGVuZ3RoPSIxMTEiIHg9IjQ1MiIgeT0iMzY1LjU4NTkiPiYjMTA1MzsmIzEwODA7JiMxMDk1OyYjMTA3NzsmIzEwNzU7JiMxMDg2OyAmIzEwODU7JiMxMDc3OyAmIzEwNzY7JiMxMDc3OyYjMTA4MzsmIzEwNzI7JiMxMDkwOyYjMTEwMDs8L3RleHQ+PCEtLVNSQz1bWEw5REp5OTA0QnR0THFtdUdHbVFsTVg4ejAwSU95ODllclRJc2hLcWdSa2FCQzRad0M2MzkyT1U5T0dHX20zbzhPcTRfMGxKVi1KaWJlZVlhSHhRSlpsbHhOamxuaElheTI2MUZMcFdCNnBaYjl2Mzc4SHRFNTVyMGltUU5EUU9SckhETnhnTU1wTXZmRk9OZDVGWjl0eFcwQ2ZyQUdLbFVRdkphTmpIU1Exbk1Wcy1Ya281SkhwRzRHN0VTMDVNblVHRUFwMHg5cHBYUXJJbnhoNHlUcnBFcmYxekdhcjhzMEI3WDVSdEVHYnowa29HclpkejY0MlpkQnhuZE44WlJQU0VacEhSOE56dzhOc3RraVJMOFZtZVFYMkVHX09DUEhCSTlxbEg2UzBrb05wTklHR3UwTjhRRW13Q2c0VHJoeUdJZWF5RFItN1o0WTV1SmZrMzk2VURBekVoQ3BZNl9QSW5XbG1YS0RhaWpDa2NKbE83S2FEREp5QWxKbVJHekdfWEN3YnZtMjFpS1RZS2FUUGJyTnNWU1FhM0YtU3NrenI2NGd0NkZINzU1QUgxbXU2Z0FOWkJ3VEtzNENObjR5cmhzNThwcVo0RWpSdFlNUE9ZWVNhc2VWTGlDazA5UHpWYnJvQVBpRklucVRSTzg0SzY0aDNwSlA0b2M1VFpzX25xQUgzYlBLSnhIc2ZlamNFcng2aEtPVGpXdEZ1Ml0tLT48L2c+PC9zdmc+;" vertex="1" parent="1">
            <mxGeometry x="-90" y="90" width="856" height="486" as="geometry" />
          </mxCell>
        </UserObject>
      </root>
    </mxGraphModel>
  </diagram>
  <diagram id="Fp7Kkwf9ms1Fi-pN4pWo" name="Page-2">
    <mxGraphModel dx="1358" dy="651" grid="1" gridSize="10" guides="1" tooltips="1" connect="1" arrows="1" fold="1" page="1" pageScale="1" pageWidth="827" pageHeight="1169" math="0" shadow="0">
      <root>
        <mxCell id="0" />
        <mxCell id="1" parent="0" />
        <UserObject label="" plantUmlData="{&#xa;  &quot;data&quot;: &quot;@startuml\nactor \&quot;Датчик тока\&quot; as CurrentSensor\nparticipant \&quot;Правило monitorCurrent\&quot; as RuleEngine\nparticipant \&quot;Зуммер wb-msw-v3_21\&quot; as Buzzer\n\nCurrentSensor -&gt; RuleEngine: Изменение значения тока (newValue)\nRuleEngine -&gt; RuleEngine: Проверка (current &gt; currentThreshold)\nalt current &gt; currentThreshold\n    RuleEngine -&gt; Buzzer: Включить зуммер (Buzzer = true)\nelse\n    RuleEngine -&gt; Buzzer: Выключить зуммер (Buzzer = false)\nend\n@enduml\n&quot;,&#xa;  &quot;format&quot;: &quot;svg&quot;&#xa;}" id="6h7chs7Wgo1sWhUbE3gu-1">
          <mxCell style="shape=image;noLabel=1;verticalAlign=top;aspect=fixed;imageAspect=0;image=data:image/svg+xml,PD94bWwgdmVyc2lvbj0iMS4wIiBlbmNvZGluZz0idXMtYXNjaWkiIHN0YW5kYWxvbmU9Im5vIj8+PHN2ZyB4bWxucz0iaHR0cDovL3d3dy53My5vcmcvMjAwMC9zdmciIHhtbG5zOnhsaW5rPSJodHRwOi8vd3d3LnczLm9yZy8xOTk5L3hsaW5rIiBjb250ZW50U3R5bGVUeXBlPSJ0ZXh0L2NzcyIgaGVpZ2h0PSIzMzZweCIgcHJlc2VydmVBc3BlY3RSYXRpbz0ibm9uZSIgc3R5bGU9IndpZHRoOjY2MnB4O2hlaWdodDozMzZweDtiYWNrZ3JvdW5kOiNGRkZGRkY7IiB2ZXJzaW9uPSIxLjEiIHZpZXdCb3g9IjAgMCA2NjIgMzM2IiB3aWR0aD0iNjYycHgiIHpvb21BbmRQYW49Im1hZ25pZnkiPjxkZWZzLz48Zz48cmVjdCBmaWxsPSJub25lIiBoZWlnaHQ9IjczLjc0MjIiIHN0eWxlPSJzdHJva2U6IzAwMDAwMDtzdHJva2Utd2lkdGg6MS41OyIgd2lkdGg9IjQ0NyIgeD0iMjA4LjUiIHk9IjE2NS44MTI1Ii8+PGxpbmUgc3R5bGU9InN0cm9rZTojMTgxODE4O3N0cm9rZS13aWR0aDowLjU7c3Ryb2tlLWRhc2hhcnJheTo1LjAsNS4wOyIgeDE9IjQ2IiB4Mj0iNDYiIHkxPSI3OS45ODQ0IiB5Mj0iMjU2LjU1NDciLz48bGluZSBzdHlsZT0ic3Ryb2tlOiMxODE4MTg7c3Ryb2tlLXdpZHRoOjAuNTtzdHJva2UtZGFzaGFycmF5OjUuMCw1LjA7IiB4MT0iMzAzLjUiIHgyPSIzMDMuNSIgeTE9Ijc5Ljk4NDQiIHkyPSIyNTYuNTU0NyIvPjxsaW5lIHN0eWxlPSJzdHJva2U6IzE4MTgxODtzdHJva2Utd2lkdGg6MC41O3N0cm9rZS1kYXNoYXJyYXk6NS4wLDUuMDsiIHgxPSI1NzAuNSIgeDI9IjU3MC41IiB5MT0iNzkuOTg0NCIgeTI9IjI1Ni41NTQ3Ii8+PHRleHQgZmlsbD0iIzAwMDAwMCIgZm9udC1mYW1pbHk9InNhbnMtc2VyaWYiIGZvbnQtc2l6ZT0iMTQiIGxlbmd0aEFkanVzdD0ic3BhY2luZyIgdGV4dExlbmd0aD0iNzciIHg9IjUiIHk9Ijc4LjIzNDQiPiYjMTA0NDsmIzEwNzI7JiMxMDkwOyYjMTA5NTsmIzEwODA7JiMxMDgyOyAmIzEwOTA7JiMxMDg2OyYjMTA4MjsmIzEwNzI7PC90ZXh0PjxlbGxpcHNlIGN4PSI0Ni41IiBjeT0iMTMuNSIgZmlsbD0iI0UyRTJGMCIgcng9IjgiIHJ5PSI4IiBzdHlsZT0ic3Ryb2tlOiMxODE4MTg7c3Ryb2tlLXdpZHRoOjAuNTsiLz48cGF0aCBkPSJNNDYuNSwyMS41IEw0Ni41LDQ4LjUgTTMzLjUsMjkuNSBMNTkuNSwyOS41IE00Ni41LDQ4LjUgTDMzLjUsNjMuNSBNNDYuNSw0OC41IEw1OS41LDYzLjUgIiBmaWxsPSJub25lIiBzdHlsZT0ic3Ryb2tlOiMxODE4MTg7c3Ryb2tlLXdpZHRoOjAuNTsiLz48dGV4dCBmaWxsPSIjMDAwMDAwIiBmb250LWZhbWlseT0ic2Fucy1zZXJpZiIgZm9udC1zaXplPSIxNCIgbGVuZ3RoQWRqdXN0PSJzcGFjaW5nIiB0ZXh0TGVuZ3RoPSI3NyIgeD0iNSIgeT0iMjY4Ljc4OTEiPiYjMTA0NDsmIzEwNzI7JiMxMDkwOyYjMTA5NTsmIzEwODA7JiMxMDgyOyAmIzEwOTA7JiMxMDg2OyYjMTA4MjsmIzEwNzI7PC90ZXh0PjxlbGxpcHNlIGN4PSI0Ni41IiBjeT0iMjc5LjAzOTEiIGZpbGw9IiNFMkUyRjAiIHJ4PSI4IiByeT0iOCIgc3R5bGU9InN0cm9rZTojMTgxODE4O3N0cm9rZS13aWR0aDowLjU7Ii8+PHBhdGggZD0iTTQ2LjUsMjg3LjAzOTEgTDQ2LjUsMzE0LjAzOTEgTTMzLjUsMjk1LjAzOTEgTDU5LjUsMjk1LjAzOTEgTTQ2LjUsMzE0LjAzOTEgTDMzLjUsMzI5LjAzOTEgTTQ2LjUsMzE0LjAzOTEgTDU5LjUsMzI5LjAzOTEgIiBmaWxsPSJub25lIiBzdHlsZT0ic3Ryb2tlOiMxODE4MTg7c3Ryb2tlLXdpZHRoOjAuNTsiLz48cmVjdCBmaWxsPSIjRTJFMkYwIiBoZWlnaHQ9IjI4Ljk4NDQiIHJ4PSIyLjUiIHJ5PSIyLjUiIHN0eWxlPSJzdHJva2U6IzE4MTgxODtzdHJva2Utd2lkdGg6MC41OyIgd2lkdGg9IjE3MCIgeD0iMjE4LjUiIHk9IjUwIi8+PHRleHQgZmlsbD0iIzAwMDAwMCIgZm9udC1mYW1pbHk9InNhbnMtc2VyaWYiIGZvbnQtc2l6ZT0iMTQiIGxlbmd0aEFkanVzdD0ic3BhY2luZyIgdGV4dExlbmd0aD0iMTU2IiB4PSIyMjUuNSIgeT0iNzAuMjM0NCI+JiMxMDU1OyYjMTA4ODsmIzEwNzI7JiMxMDc0OyYjMTA4MDsmIzEwODM7JiMxMDg2OyBtb25pdG9yQ3VycmVudDwvdGV4dD48cmVjdCBmaWxsPSIjRTJFMkYwIiBoZWlnaHQ9IjI4Ljk4NDQiIHJ4PSIyLjUiIHJ5PSIyLjUiIHN0eWxlPSJzdHJva2U6IzE4MTgxODtzdHJva2Utd2lkdGg6MC41OyIgd2lkdGg9IjE3MCIgeD0iMjE4LjUiIHk9IjI1NS41NTQ3Ii8+PHRleHQgZmlsbD0iIzAwMDAwMCIgZm9udC1mYW1pbHk9InNhbnMtc2VyaWYiIGZvbnQtc2l6ZT0iMTQiIGxlbmd0aEFkanVzdD0ic3BhY2luZyIgdGV4dExlbmd0aD0iMTU2IiB4PSIyMjUuNSIgeT0iMjc1Ljc4OTEiPiYjMTA1NTsmIzEwODg7JiMxMDcyOyYjMTA3NDsmIzEwODA7JiMxMDgzOyYjMTA4NjsgbW9uaXRvckN1cnJlbnQ8L3RleHQ+PHJlY3QgZmlsbD0iI0UyRTJGMCIgaGVpZ2h0PSIyOC45ODQ0IiByeD0iMi41IiByeT0iMi41IiBzdHlsZT0ic3Ryb2tlOiMxODE4MTg7c3Ryb2tlLXdpZHRoOjAuNTsiIHdpZHRoPSIxNTAiIHg9IjQ5NS41IiB5PSI1MCIvPjx0ZXh0IGZpbGw9IiMwMDAwMDAiIGZvbnQtZmFtaWx5PSJzYW5zLXNlcmlmIiBmb250LXNpemU9IjE0IiBsZW5ndGhBZGp1c3Q9InNwYWNpbmciIHRleHRMZW5ndGg9IjEzNiIgeD0iNTAyLjUiIHk9IjcwLjIzNDQiPiYjMTA0NzsmIzEwOTE7JiMxMDg0OyYjMTA4NDsmIzEwNzc7JiMxMDg4OyB3Yi1tc3ctdjNfMjE8L3RleHQ+PHJlY3QgZmlsbD0iI0UyRTJGMCIgaGVpZ2h0PSIyOC45ODQ0IiByeD0iMi41IiByeT0iMi41IiBzdHlsZT0ic3Ryb2tlOiMxODE4MTg7c3Ryb2tlLXdpZHRoOjAuNTsiIHdpZHRoPSIxNTAiIHg9IjQ5NS41IiB5PSIyNTUuNTU0NyIvPjx0ZXh0IGZpbGw9IiMwMDAwMDAiIGZvbnQtZmFtaWx5PSJzYW5zLXNlcmlmIiBmb250LXNpemU9IjE0IiBsZW5ndGhBZGp1c3Q9InNwYWNpbmciIHRleHRMZW5ndGg9IjEzNiIgeD0iNTAyLjUiIHk9IjI3NS43ODkxIj4mIzEwNDc7JiMxMDkxOyYjMTA4NDsmIzEwODQ7JiMxMDc3OyYjMTA4ODsgd2ItbXN3LXYzXzIxPC90ZXh0Pjxwb2x5Z29uIGZpbGw9IiMxODE4MTgiIHBvaW50cz0iMjkxLjUsMTA1Ljg5ODQsMzAxLjUsMTA5Ljg5ODQsMjkxLjUsMTEzLjg5ODQsMjk1LjUsMTA5Ljg5ODQiIHN0eWxlPSJzdHJva2U6IzE4MTgxODtzdHJva2Utd2lkdGg6MS4wOyIvPjxsaW5lIHN0eWxlPSJzdHJva2U6IzE4MTgxODtzdHJva2Utd2lkdGg6MS4wOyIgeDE9IjQ2LjUiIHgyPSIyOTcuNSIgeTE9IjEwOS44OTg0IiB5Mj0iMTA5Ljg5ODQiLz48dGV4dCBmaWxsPSIjMDAwMDAwIiBmb250LWZhbWlseT0ic2Fucy1zZXJpZiIgZm9udC1zaXplPSIxMyIgbGVuZ3RoQWRqdXN0PSJzcGFjaW5nIiB0ZXh0TGVuZ3RoPSIyMzMiIHg9IjUzLjUiIHk9IjEwNi4yNzM0Ij4mIzEwNDg7JiMxMDc5OyYjMTA4NDsmIzEwNzc7JiMxMDg1OyYjMTA3NzsmIzEwODU7JiMxMDgwOyYjMTA3NzsgJiMxMDc5OyYjMTA4NTsmIzEwNzI7JiMxMDk1OyYjMTA3NzsmIzEwODU7JiMxMDgwOyYjMTEwMzsgJiMxMDkwOyYjMTA4NjsmIzEwODI7JiMxMDcyOyAobmV3VmFsdWUpPC90ZXh0PjxsaW5lIHN0eWxlPSJzdHJva2U6IzE4MTgxODtzdHJva2Utd2lkdGg6MS4wOyIgeDE9IjMwMy41IiB4Mj0iMzQ1LjUiIHkxPSIxMzcuODEyNSIgeTI9IjEzNy44MTI1Ii8+PGxpbmUgc3R5bGU9InN0cm9rZTojMTgxODE4O3N0cm9rZS13aWR0aDoxLjA7IiB4MT0iMzQ1LjUiIHgyPSIzNDUuNSIgeTE9IjEzNy44MTI1IiB5Mj0iMTUwLjgxMjUiLz48bGluZSBzdHlsZT0ic3Ryb2tlOiMxODE4MTg7c3Ryb2tlLXdpZHRoOjEuMDsiIHgxPSIzMDQuNSIgeDI9IjM0NS41IiB5MT0iMTUwLjgxMjUiIHkyPSIxNTAuODEyNSIvPjxwb2x5Z29uIGZpbGw9IiMxODE4MTgiIHBvaW50cz0iMzE0LjUsMTQ2LjgxMjUsMzA0LjUsMTUwLjgxMjUsMzE0LjUsMTU0LjgxMjUsMzEwLjUsMTUwLjgxMjUiIHN0eWxlPSJzdHJva2U6IzE4MTgxODtzdHJva2Utd2lkdGg6MS4wOyIvPjx0ZXh0IGZpbGw9IiMwMDAwMDAiIGZvbnQtZmFtaWx5PSJzYW5zLXNlcmlmIiBmb250LXNpemU9IjEzIiBsZW5ndGhBZGp1c3Q9InNwYWNpbmciIHRleHRMZW5ndGg9IjI1MyIgeD0iMzEwLjUiIHk9IjEzNC4xODc1Ij4mIzEwNTU7JiMxMDg4OyYjMTA4NjsmIzEwNzQ7JiMxMDc3OyYjMTA4ODsmIzEwODI7JiMxMDcyOyAoY3VycmVudCAmZ3Q7IGN1cnJlbnRUaHJlc2hvbGQpPC90ZXh0PjxwYXRoIGQ9Ik0yMDguNSwxNjUuODEyNSBMMjcyLjUsMTY1LjgxMjUgTDI3Mi41LDE3MS43MjY2IEwyNjIuNSwxODEuNzI2NiBMMjA4LjUsMTgxLjcyNjYgTDIwOC41LDE2NS44MTI1ICIgZmlsbD0iI0VFRUVFRSIgc3R5bGU9InN0cm9rZTojMDAwMDAwO3N0cm9rZS13aWR0aDoxLjU7Ii8+PHJlY3QgZmlsbD0ibm9uZSIgaGVpZ2h0PSI3My43NDIyIiBzdHlsZT0ic3Ryb2tlOiMwMDAwMDA7c3Ryb2tlLXdpZHRoOjEuNTsiIHdpZHRoPSI0NDciIHg9IjIwOC41IiB5PSIxNjUuODEyNSIvPjx0ZXh0IGZpbGw9IiMwMDAwMDAiIGZvbnQtZmFtaWx5PSJzYW5zLXNlcmlmIiBmb250LXNpemU9IjEzIiBmb250LXdlaWdodD0iYm9sZCIgbGVuZ3RoQWRqdXN0PSJzcGFjaW5nIiB0ZXh0TGVuZ3RoPSIxOSIgeD0iMjIzLjUiIHk9IjE3OS4xMDE2Ij5hbHQ8L3RleHQ+PHRleHQgZmlsbD0iIzAwMDAwMCIgZm9udC1mYW1pbHk9InNhbnMtc2VyaWYiIGZvbnQtc2l6ZT0iMTEiIGZvbnQtd2VpZ2h0PSJib2xkIiBsZW5ndGhBZGp1c3Q9InNwYWNpbmciIHRleHRMZW5ndGg9IjE2OCIgeD0iMjg3LjUiIHk9IjE3OC4yMTA5Ij5bY3VycmVudCAmZ3Q7IGN1cnJlbnRUaHJlc2hvbGRdPC90ZXh0Pjxwb2x5Z29uIGZpbGw9IiMxODE4MTgiIHBvaW50cz0iNTU4LjUsMTk3LjY0MDYsNTY4LjUsMjAxLjY0MDYsNTU4LjUsMjA1LjY0MDYsNTYyLjUsMjAxLjY0MDYiIHN0eWxlPSJzdHJva2U6IzE4MTgxODtzdHJva2Utd2lkdGg6MS4wOyIvPjxsaW5lIHN0eWxlPSJzdHJva2U6IzE4MTgxODtzdHJva2Utd2lkdGg6MS4wOyIgeDE9IjMwMy41IiB4Mj0iNTY0LjUiIHkxPSIyMDEuNjQwNiIgeTI9IjIwMS42NDA2Ii8+PHRleHQgZmlsbD0iIzAwMDAwMCIgZm9udC1mYW1pbHk9InNhbnMtc2VyaWYiIGZvbnQtc2l6ZT0iMTMiIGxlbmd0aEFkanVzdD0ic3BhY2luZyIgdGV4dExlbmd0aD0iMjEzIiB4PSIzMTAuNSIgeT0iMTk4LjAxNTYiPiYjMTA0MjsmIzEwODI7JiMxMDgzOyYjMTEwMjsmIzEwOTU7JiMxMDgwOyYjMTA5MDsmIzExMDA7ICYjMTA3OTsmIzEwOTE7JiMxMDg0OyYjMTA4NDsmIzEwNzc7JiMxMDg4OyAoQnV6emVyID0gdHJ1ZSk8L3RleHQ+PGxpbmUgc3R5bGU9InN0cm9rZTojMDAwMDAwO3N0cm9rZS13aWR0aDoxLjA7c3Ryb2tlLWRhc2hhcnJheToyLjAsMi4wOyIgeDE9IjIwOC41IiB4Mj0iNjU1LjUiIHkxPSIyMTAuNjQwNiIgeTI9IjIxMC42NDA2Ii8+PHBvbHlnb24gZmlsbD0iIzE4MTgxOCIgcG9pbnRzPSI1NTguNSwyMjcuNTU0Nyw1NjguNSwyMzEuNTU0Nyw1NTguNSwyMzUuNTU0Nyw1NjIuNSwyMzEuNTU0NyIgc3R5bGU9InN0cm9rZTojMTgxODE4O3N0cm9rZS13aWR0aDoxLjA7Ii8+PGxpbmUgc3R5bGU9InN0cm9rZTojMTgxODE4O3N0cm9rZS13aWR0aDoxLjA7IiB4MT0iMzAzLjUiIHgyPSI1NjQuNSIgeTE9IjIzMS41NTQ3IiB5Mj0iMjMxLjU1NDciLz48dGV4dCBmaWxsPSIjMDAwMDAwIiBmb250LWZhbWlseT0ic2Fucy1zZXJpZiIgZm9udC1zaXplPSIxMyIgbGVuZ3RoQWRqdXN0PSJzcGFjaW5nIiB0ZXh0TGVuZ3RoPSIyMjYiIHg9IjMxMC41IiB5PSIyMjcuOTI5NyI+JiMxMDQyOyYjMTA5OTsmIzEwODI7JiMxMDgzOyYjMTEwMjsmIzEwOTU7JiMxMDgwOyYjMTA5MDsmIzExMDA7ICYjMTA3OTsmIzEwOTE7JiMxMDg0OyYjMTA4NDsmIzEwNzc7JiMxMDg4OyAoQnV6emVyID0gZmFsc2UpPC90ZXh0PjwhLS1TUkM9W1pQM0ZJV0NuNENSbFVPZ1hmX1FtMV9LY3M4Rlkyd1h1YlJXVHhLQVFCS2RNWFB2QUZWSVdBOFlXRHJ6WDRPZ2JqVmlDYXBUb1RiRndIcjVDMjhIOWxqenl0eVpPZkdPUXo0bzU3X2FuSk1hNlZhR2JwUVhlV0JIbWIxYzNzZnNZamdhSFZNYlM0WVR6Z0hzQnRsb0cyZGZkcVBuQXdBS3dPVFhJSzhqRkNlTjctWmhILTR0dnVjX2ZhX1Y0M282X1o3ZXNac3hzQmRQdFFqTFhEWFlXNE1BaERLSmozVG0tcTJqekwwMVFyNlRBNC0zMldjRUNHeTRfaGU5MEtzRC1CYk02QlI1Y18yMU1TS2dFbXdRMkFXdTZlMHRCc3JkTmVFc2NnakNJS1pkdV9McTBoLXJNOEhNdFVNQnV0M3pLbS1RSHR4RmpaTTRxbXBTdTA2U2drd1dpX1dkcFRfXzNOS2FjQ0t6dGxXMDBdLS0+PC9nPjwvc3ZnPg==;" vertex="1" parent="1">
            <mxGeometry x="140" y="210" width="662" height="336" as="geometry" />
          </mxCell>
        </UserObject>
      </root>
    </mxGraphModel>
  </diagram>
</mxfile>
